<svg width="198" height="86" viewBox="0 0 198 86" fill="none" xmlns="http://www.w3.org/2000/svg">
<path d="M59.8978 68.9428H59.1631L58.0864 68.7539L57.2063 68.8338H55.3151L54.9223 68.921L53.3946 68.7975H51.4378L50.2084 69.1389L49.9318 69.3714L49.8882 69.7855L49.9975 69.8073L50.8121 70.2795L50.7901 70.5119H52.3399L53.2491 70.7299L53.8456 70.9623L54.1511 71.1585L54.2166 71.8704L54.5148 72.19L54.3184 72.7058V75.4591L54.3839 75.6044L54.2966 76.2292L54.5367 76.8321L54.3621 77.3044L54.4057 77.8201L54.4711 78.0308V79.2367L54.3402 79.6218V81.1691L54.4711 81.2563L54.2602 81.99V83.6827L54.4275 83.8788L54.4711 84.4818L55.0094 84.7797L55.3513 84.8015L55.7661 84.6562L55.9551 84.3075L56.1734 83.3631L56.1078 82.6366L56.1953 81.8157L55.8461 81.111L56.1078 81.1691L56.1953 80.6533V79.6L56.0207 79.3893L56.1953 78.721V72.5533L56.1078 72.4443V72.0157L56.3262 71.3546L56.4935 71.1149L57.0537 70.7952L57.7665 70.6209L58.5594 70.5555H59.8105L60.2835 70.4029L60.0215 69.9525L60.3052 69.8436L60.5381 69.415L60.4725 69.2261L59.8978 68.9428Z" fill="black"/>
<path d="M74.163 74.3622L74.0321 73.4614L74.0757 73.0546V72.2409L73.9229 71.9649L73.8575 71.2093L73.581 70.7589L73.4721 70.1342L73.0646 69.6402L72.5263 69.059L72.2281 68.8847L71.2169 68.565L70.2711 68.456H67.6889L67.2597 68.565L67.1288 68.7176L66.0522 68.9137L65.5354 69.1462L65.1065 69.553L64.9753 69.9816L64.699 70.3012L64.4444 70.7952L64.6189 71.1803L64.2769 72.2554L64.2335 72.6841L64.0152 73.1127V75.372L64.1026 75.6335L64.0152 76.5343L64.2118 76.7522L64.0371 77.5877L64.168 78.2342L64.0371 78.4522L64.1026 79.244L64.0152 79.9995V80.8786L64.2916 81.2636L64.2262 82.099L64.4008 82.811L64.7645 83.4357L65.6448 84.5545L66.4375 84.8959L67.4051 85.0921H70.8896L71.4497 84.9177L72.8465 84.1476L73.2756 83.828L73.4938 83.443L73.4721 83.2904L73.814 82.7092V82.237L73.9448 81.6777L74.0104 81.0529L73.8575 80.8568L74.054 80.6824L74.163 79.0915L73.9229 78.4231L74.1195 78.1834V75.6262L74.054 75.3647V74.8489L74.163 74.3549V74.3622ZM72.1554 75.263L72.0679 76.0548L72.1554 77.0428L72.0679 77.7112L72.1554 78.6556L72.0898 78.8517L72.1554 79.1714V80.0722L72.0026 81.1038L71.8498 81.6849L71.486 82.4768L70.9696 82.9272L70.4967 83.1451L69.442 83.2759H68.5836L67.8924 83.2105L67.2451 83.0362L66.7505 82.6293L66.3867 81.9174L66.023 81.4016L65.8267 81.2491L66.0811 81.0747L65.9283 80.2611L65.9939 79.985V79.6218L65.8412 79.0406L65.9939 78.3287V72.052L66.2484 72.0084L66.5249 71.0422L66.6339 70.9333L67.1722 70.6354L68.0743 70.3812L69.1727 70.2286L70.6568 70.4901L71.5587 71.0931L71.9444 71.7179V72.1465L72.1408 73.0691L72.0536 73.4977V74.8271L72.1408 75.2557L72.1554 75.263Z" fill="black"/>
<path d="M87.4972 79.5201L87.3515 79.3457V78.9389L87.1769 78.4231L86.6387 77.9509L86.5733 77.733L86.1003 77.1736L85.6494 76.9847L84.7475 76.251L83.5398 75.648L82.9797 75.263L82.0341 75.0886L81.7576 74.9579L81.6922 74.384L81.001 73.8464L80.7246 73.3524L80.7828 73.2652L80.7028 72.8584L80.4408 72.4225L80.6592 71.805L80.9138 71.3546L81.2411 70.9841L82.0121 70.4683L81.9904 70.3448L82.2086 70.2359L82.8487 70.1923L83.6053 70.3012L84.551 70.5991L85.2639 70.7516H85.8458L86.0351 70.6645V70.2577L86.3405 69.6765L86.2315 69.3714L86.0131 69.1607L84.8565 68.7321L84.2526 68.6013L83.1543 68.4706H82.3759L81.6485 68.6013L81.2775 68.7539L81.001 69.0081L79.7498 69.4368L79.5171 69.6765L79.3207 70.4029L78.9569 70.6209L78.804 71.0277L78.9569 71.5653L78.615 71.7832V73.178L78.7168 73.4323L78.8915 73.6284L78.9787 74.1006L79.1097 74.384L79.6262 75.154L80.0554 75.6262L80.5281 75.9967L81.9686 76.7886L83.4089 77.7548L84.1872 78.0308L84.7475 78.1398L84.551 78.3795L84.8565 78.7863L85.5185 79.1278L85.5621 79.5419L85.9476 80.4863L85.8893 80.5952L85.7585 81.1909V81.6195L85.1765 82.3315L84.5947 82.8473L84.0564 83.1306L83.0451 83.2759H82.2958L81.2192 83.1524L80.288 82.9344L79.6043 82.5276L79.1752 82.3751L78.7168 82.4622L78.1859 83.2759L78.2441 83.6827L78.5714 84.3292L79.4954 84.7579L80.9575 85.0412H83.8017L84.8128 84.845L85.5185 84.5908L86.3187 84.075L86.4859 83.857L86.9805 83.4502L87.3298 82.6148L87.5843 82.2443L87.628 81.5396L87.7808 80.6969L87.6717 79.8615L87.4972 79.5201Z" fill="black"/>
<path d="M101.057 81.8375L100.409 81.7721L99.9583 81.9247L98.969 82.7819L98.6052 83.0216L97.914 83.2105L97.0776 83.2759L96.212 83.1887L95.4844 82.978L95.2007 82.8037L94.9243 82.5058L94.6843 82.0554L94.4733 81.7503L94.0804 81.5396L94.0369 81.1255L93.8696 80.6533L93.6295 80.3337L93.4403 78.4885L93.2439 78.4013L93.3314 77.8637L93.2439 76.8975L93.3529 76.4471L93.1784 75.9095L93.3314 75.648L93.3965 75.263L93.3314 74.9579V74.5946L93.5421 74.2096L93.3529 73.6502L93.5858 73.5195L93.8259 73.2216L93.8912 72.5969L94.4514 71.8268L94.5751 71.5435L94.4733 71.311L94.9463 70.9187L96.0808 70.2577L96.7502 70.0833H97.5722L98.6052 70.5555L99.6382 71.5435L100.3 71.8849H100.686L100.948 71.7396L101.166 71.4781L101.311 70.7516L100.3 69.4368L99.7399 69.1171L98.1687 68.6667L97.914 68.4706H96.212L95.6737 68.5577L95.419 68.7757L95.3318 68.8774L94.6843 68.921L93.8696 69.3932L93.4185 69.9307L93.2657 70.2141L92.5311 70.9623L92.451 71.3546L92.211 71.6089L92.0584 72.1465L92.2329 72.3208L91.8254 72.793L91.6508 73.2652L91.4545 74.384L91.5417 74.8344L91.2872 75.6698V77.8637L91.418 78.4667L91.4981 79.5854L91.629 80.1811L91.6944 80.3555L91.8036 81.0456L92.4873 81.1474L92.1454 81.4525V81.99L92.4074 82.5712L92.9457 83.3631L93.6075 84.0314L94.2986 84.5472L94.8588 84.8232L95.7389 85.0848L96.7502 85.1937H97.6523L98.7507 84.9104L99.4635 84.678L100.067 84.3728L100.671 83.8788L101.442 83.0434L101.188 81.9029L101.057 81.8375Z" fill="black"/>
<path d="M115.598 83.087L115.642 82.5712L115.555 82.1208L115.336 81.7576L115.184 81.605L115.205 81.2636L114.842 79.6944L114.434 79.1786L114.5 78.859V78.1253L114.158 77.4569L113.896 77.2172L113.983 76.9411V76.5779L113.423 74.8562L113.227 74.4711L113.096 73.396L112.667 72.4298L112.303 70.541L111.83 69.829L111.786 69.3133L111.292 69.0372L110.994 68.9718H110.63L110.157 69.1026L109.815 69.2769L109.641 69.5748V70.0906L109.386 70.3303L109.11 70.9987L108.913 71.776L109.066 72.0084L108.913 72.3935L108.826 72.4806L108.629 72.9093L108.717 73.2725L108.397 73.8537L108.331 74.3695L108.462 74.3912L108.033 75.2267L107.713 76.1929V76.7305L107.414 77.2244L107.327 78.0817L107.131 78.2342L107 78.8372V79.0697L106.723 79.6072L106.636 80.0141V80.3337L106.396 80.8713V81.3435L106.287 81.6631L106.047 82.07V82.8037L105.749 83.2105V83.5955L105.574 84.0023L105.661 84.431L105.938 84.6634L106.607 84.7724L107.036 84.7288L107.422 84.4673L108.004 83.0289L107.894 82.8109L108.651 81.8666L108.993 81.6486L110.819 81.4525H112.281L112.819 81.7067L113.118 82.0482L113.976 83.8353V84.1113L114.383 84.7361L115.009 84.8668L115.329 84.845L115.758 84.4818L115.867 83.69L115.78 83.4139L115.584 83.0725L115.598 83.087ZM112.07 79.4329L111.772 79.5201H109.641L109.124 79.3021L109.102 79.0043L109.4 78.7863L109.204 78.5684V78.0526L109.379 77.5804L109.488 77.0428L109.226 76.8685L109.633 76.4835L109.764 76.2219L109.961 75.1468L110.026 75.2557L110.201 74.7617L110.091 74.5874L110.353 74.2459L110.957 74.028L111.11 74.1588L111.452 74.9143L111.881 76.2437L112.332 78.2851L112.441 79.0551L112.077 79.4184L112.07 79.4329Z" fill="black"/>
<path d="M129.776 73.0037L129.609 72.4225L129.732 71.9939V70.6645L129.456 70.0615L129.674 69.6765L129.478 69.2915L128.94 69.1607L128.358 69.2261L128.183 69.3133L127.972 69.909L128.336 70.0397L127.972 70.4683V72.1029L128.038 72.3644L127.907 72.7058L127.972 73.2434V76.527L128.059 76.8104L127.972 77.4569V78.5103L127.841 78.7646L127.754 79.2585L127.565 79.5201L127.135 79.6436L126.597 78.6338L126.379 78.4231L126.059 77.7766L125.993 77.3479L125.521 76.5052L125.39 76.0984L125.07 76.033V75.6044L125.026 75.263L124.4 74.66V74.166L124.335 73.9481L123.927 73.6284L123.993 73.1562L123.84 72.902L123.389 72.5533L123.302 71.8704L123.105 71.3909L122.916 71.2674L122.873 70.897L122.785 70.6645L122.225 70.0833L122.247 69.829L122.116 69.415L121.818 69.2043L120.872 68.8774L120.356 68.9428L120.029 69.1171L119.752 69.415L119.555 69.9743L119.796 70.5773L119.621 70.6209V71.7179L119.555 72.2772L119.752 72.5097L119.555 73.0691V74.7036L119.839 75.0233L119.621 75.2848L119.555 75.5173L119.643 76.251L119.555 76.5924V77.733L119.752 78.2052L119.555 78.612V80.1376L119.665 80.3337L119.555 81.0021L119.643 81.2781L119.555 81.9683L119.643 82.7165L119.555 83.8788L119.687 84.2421L119.963 84.5254L120.116 84.6126L121.018 84.7143L121.389 84.1404L121.578 83.2759L121.389 82.9127L121.578 82.2443L121.534 81.9683L121.301 81.7503L121.578 81.0021L121.512 80.1158L121.432 80.3337L121.578 79.8615L121.498 79.3675L121.578 78.8735L121.454 78.5103L121.534 77.4569L121.301 77.021L121.578 76.527V75.1322L121.454 74.8344L121.774 74.384L122.014 74.3404L122.654 74.5293L123.062 74.7472L122.829 74.8998V75.263L123.28 75.7352L123.455 76.0548L123.389 76.3382L123.818 76.9411L124.117 77.733L124.335 77.9509L124.611 78.1398L124.466 78.3359L124.531 78.721L125.215 79.4765L125.106 79.8397L125.608 80.9585L125.972 81.3653L126.204 82.3097L126.554 82.7819L126.721 83.2541L127.048 83.7263L127.368 84.4382L127.71 84.6925L128.358 84.8886H128.743L129.369 84.5908L129.609 84.2639L129.732 83.8788L129.776 83.4938L129.696 83.087L129.776 82.6729V79.6436L129.696 79.4547V78.5103L129.369 78.2488L129.652 78.0163L129.776 77.6022L129.609 76.6796L129.776 76.251L129.696 75.372V73.9917L129.522 73.4323L129.732 73.3306L129.776 73.0037Z" fill="black"/>
<path d="M143.401 83.087L143.445 82.5712L143.357 82.1208L143.139 81.7576L142.987 81.605L143.008 81.2636L142.644 79.6944L142.237 79.1786L142.303 78.859V78.1253L141.961 77.4569L141.699 77.2172L141.786 76.9411V76.5779L141.226 74.8562L141.03 74.4711L140.899 73.396L140.469 72.4298L140.106 70.541L139.633 69.829L139.589 69.3133L139.095 69.0372L138.797 68.9718H138.433L137.96 69.1026L137.618 69.2769L137.443 69.5748V70.0906L137.189 70.3303L136.912 70.9987L136.716 71.776L136.869 72.0084L136.716 72.3935L136.629 72.4806L136.432 72.9093L136.52 73.2725L136.199 73.8537L136.134 74.3695L136.265 74.3912L135.836 75.2267L135.516 76.1929V76.7305L135.217 77.2244L135.13 78.0817L134.934 78.2342L134.803 78.8372V79.0697L134.526 79.6072L134.439 80.0141V80.3337L134.199 80.8713V81.3435L134.09 81.6631L133.85 82.07V82.8037L133.552 83.2105V83.5955L133.377 84.0023L133.464 84.431L133.741 84.6634L134.41 84.7724L134.839 84.7288L135.225 84.4673L135.807 83.0289L135.698 82.8109L136.454 81.8666L136.796 81.6486L138.622 81.4525H140.084L140.622 81.7067L140.921 82.0482L141.779 83.8353V84.1113L142.186 84.7361L142.812 84.8668L143.132 84.845L143.561 84.4818L143.67 83.69L143.583 83.4139L143.387 83.0725L143.401 83.087ZM139.873 79.4329L139.575 79.5201H137.443L136.927 79.3021L136.905 79.0043L137.203 78.7863L137.007 78.5684V78.0526L137.181 77.5804L137.291 77.0428L137.029 76.8685L137.436 76.4835L137.567 76.2219L137.763 75.1468L137.829 75.2557L138.003 74.7617L137.895 74.5874L138.156 74.2459L138.76 74.028L138.913 74.1588L139.255 74.9143L139.684 76.2437L140.135 78.2851L140.244 79.0551L139.88 79.4184L139.873 79.4329Z" fill="black"/>
<path d="M51.234 46.9164L51.7069 46.7275C51.765 46.6476 51.2632 45.9212 51.2559 45.6959C51.2559 45.4417 51.4959 45.4489 51.525 45.3836C51.5541 45.3182 51.4158 45.1511 51.4304 44.9913C51.474 44.5118 51.8306 44.0469 51.7869 43.5311C51.6342 41.4171 51.1322 38.8599 50.0556 37.0292C49.7137 36.4553 49.1827 36.3827 48.9135 36.0049C48.7826 35.8233 48.7681 35.5836 48.6226 35.4238C48.3534 35.1332 47.1676 34.8281 46.8403 34.5084C46.7021 34.3777 46.6875 34.2396 46.6802 34.0653C46.0692 34.4576 45.9819 33.8619 45.7928 33.782C45.6764 33.7384 45.3564 33.8183 45.1091 33.7674C44.6144 33.6657 43.5668 33.0119 43.0358 32.7576C42.6648 32.5833 42.2719 32.7358 42.2719 32.1329L41.6536 32.1547C42.4611 31.2974 43.8577 31.2103 44.8252 30.7381C45.138 30.5855 45.4582 30.215 45.8365 30.0479C46.2948 29.8445 46.9422 29.7937 47.4223 29.5321C49.2336 28.5587 52.4489 26.0451 53.962 24.6358C54.413 24.2144 54.6311 23.4444 55.4168 23.4081L55.3297 22.6961C56.1081 22.6961 55.7952 22.4201 55.9188 22.006C55.9916 21.7735 56.3553 21.5701 56.4935 21.3449C57.0682 20.3932 57.2282 19.6087 57.4537 18.5916C57.5701 18.0613 58.1229 17.4946 58.152 17.2912C58.1811 17.1241 58.1156 16.0345 58.0865 15.7657C58.0429 15.3225 57.8101 14.6542 57.8028 14.3491C57.7956 14.1166 58.1011 13.8042 58.0938 13.3756C58.0938 12.947 57.8901 12.5692 57.861 12.2568C57.8392 12.0389 58.0283 11.8355 57.9701 11.5231C57.9046 11.1744 57.3301 10.724 57.461 10.1501L56.9736 9.94669C57.17 8.87879 55.9916 8.3412 55.4388 7.71645C55.3078 7.57115 55.2569 7.16433 54.9077 7.01904L54.9587 6.71393C55.1042 6.53231 55.3587 6.63402 55.4532 6.5541C55.5696 6.4524 55.5842 6.18361 55.7078 6.1037C55.7806 6.06011 56.0352 6.12549 56.2317 6.04558C58.1448 5.29732 59.6287 3.9679 61.891 3.50296C62.6476 3.3504 66.634 2.94358 67.1724 3.18331C67.6088 3.3722 67.4489 3.2487 67.8199 3.3504C68.1181 3.43031 68.4017 3.85893 68.6563 3.9461C68.8891 4.02601 69.6167 4.12772 69.8349 4.04054C70.1622 3.90978 70.0674 3.60466 70.6203 3.85893C70.5475 3.69184 70.7367 3.4739 70.7295 3.3722C70.7295 3.33587 70.4821 2.66753 70.453 2.64573C70.4166 2.61667 70.2494 2.70385 70.1476 2.60941C70.0603 2.53676 69.944 2.21712 69.8785 2.08636L69.5002 2.23165C69.2383 1.88295 68.7 1.41075 68.3144 1.19281C67.9871 0.996661 67.6161 0.960338 67.3324 0.793251C67.1942 0.71334 67.0997 0.473607 66.9687 0.422755C66.8451 0.379167 66.6558 0.52446 66.4594 0.502666C66.1321 0.473608 65.6521 0.175757 65.4193 0.183022C64.4227 0.21208 63.1204 0.568047 62.1384 0.640693C61.9492 0.655223 61.8328 0.466343 61.5346 0.531724C61.2145 0.604371 60.8582 1.04751 60.5381 1.15648C60.1816 1.27998 59.9343 1.17828 59.6506 1.22186C58.7631 1.38169 58.1085 2.52223 57.1119 2.23165L57.0099 2.66026C56.5953 2.25344 56.159 2.8782 55.6935 3.11793C55.1479 3.39399 54.5367 3.54655 53.9911 3.82987C53.5838 4.04054 52.8344 4.70162 52.4925 4.69436C52.2234 4.69436 51.0595 3.64825 50.7103 3.40852C48.739 2.05003 46.7385 1.96286 44.7162 0.91675C43.4868 1.13469 42.0102 0.371902 40.7735 0.270197C39.9806 0.204816 39.1367 0.371903 38.3365 0.313785C36.256 0.175757 35.1867 -0.325503 32.9316 0.328314C26.9738 2.05003 20.5577 4.97768 16.4622 9.69243C16.3021 9.88131 15.8367 10.23 15.7494 10.3826C15.6548 10.5497 15.6984 10.833 15.662 10.8766C15.6038 10.9347 15.3711 10.8766 15.2838 10.9492C15.2474 10.9783 15.2256 11.2761 15.1237 11.4214C14.4036 12.4312 12.5558 14.0367 12.0393 15.0247C11.8284 15.4242 11.7774 15.9763 11.5737 16.4195C11.4282 16.7391 11.0936 17.0806 10.97 17.422C10.7881 17.9233 10.8828 18.6425 10.7519 19.0057C10.6355 19.3108 10.4099 19.1946 10.3881 19.8266C10.3299 21.2287 10.2353 23.6478 10.6354 24.9046C10.8973 25.7255 11.1083 25.849 11.5375 26.481C12.3668 27.7087 12.8831 28.7984 14.3817 29.3578C14.5053 29.4014 15.2692 29.6847 15.3201 29.692C15.6984 29.7501 16.4549 29.5903 16.9278 29.6411C17.2333 29.6702 17.808 29.9317 18.0263 29.8881C18.1863 29.859 18.2882 29.6556 18.3027 29.6556C18.3827 29.6484 18.4482 29.8881 18.5137 29.9172C18.7829 30.0334 19.2483 29.6411 19.5466 29.5975C19.823 29.5539 20.0923 29.6847 20.3687 29.5975C20.4706 29.5685 22.2018 28.7911 22.3182 28.7258C22.471 28.6386 22.9438 27.992 23.0966 27.9267C23.3585 27.8104 23.9041 27.9557 23.9477 27.8976C23.9623 27.8831 23.904 27.6797 24.064 27.4835C24.5732 26.8442 25.5408 26.5028 26.0646 26.0814C26.3119 25.8853 26.4572 25.4422 26.6463 25.2387C27.1555 24.6794 28.5887 23.3863 28.8433 22.7906C28.8942 22.6816 28.8579 22.4491 28.887 22.4128C28.9598 22.3329 29.2871 22.4346 29.4253 22.2312C29.5126 22.1077 29.5054 21.6355 29.6291 21.3812C29.8182 20.9962 30.48 20.4659 30.5819 20.0881C30.6546 19.8266 30.5675 19.5651 30.6402 19.3035C30.7057 19.0565 31.0767 18.8023 31.0767 18.5262C31.0767 18.3083 30.8583 18.2356 30.8728 18.1049C30.9019 17.8215 31.3747 17.3058 31.3893 16.928C31.4038 16.5793 31.1638 16.4921 31.1129 16.2597C31.0693 16.0272 31.2585 15.6857 31.0693 15.4823C30.9893 15.3952 30.7856 15.4388 30.6911 15.3734C30.5528 15.2862 30.5602 15.0828 30.4292 14.9956C30.2837 14.8939 29.6945 14.8358 29.4908 14.6542L29.1488 15.0828L28.8215 14.9302C28.5815 15.1918 28.7926 15.5405 28.7344 15.8819C28.7053 16.078 28.4868 16.2669 28.465 16.4994C28.4432 16.7028 28.5378 16.9062 28.516 17.0733C28.5087 17.1605 28.2977 17.2331 28.2176 17.4147C28.0867 17.7271 28.0504 18.2356 27.8976 18.6425C26.9592 21.0616 24.9515 23.1029 22.9583 24.6794C22.6309 24.9409 20.0558 26.4883 19.7648 26.5464C19.4229 26.6118 19.0809 26.481 18.6517 26.5972C18.3462 26.6771 18.0845 26.9532 17.859 26.9968C17.0297 27.1493 15.8076 26.8805 15.0657 26.6771C14.6801 26.5754 13.7707 26.3648 13.5379 26.1396C13.4506 26.0596 13.436 25.878 13.3705 25.8272C13.2905 25.7691 13.0941 25.8272 13.0214 25.7473C12.8395 25.5511 13.0359 24.8973 12.5558 24.7084L12.6796 24.2217L12.9996 24.2871C12.9996 24.0255 12.9269 23.4734 13.0287 23.2482C13.3488 22.5436 14.1198 22.0859 13.807 21.0906C14.4617 20.0082 14.5855 17.669 15.1747 16.7101C15.3566 16.4195 15.6766 16.3759 15.873 16.1434C16.0549 15.9327 16.1786 15.446 16.3677 15.1409C17.488 13.3756 20.7105 10.5787 22.4419 9.34372C24.5296 7.86174 26.7847 6.40155 29.1488 5.508C31.4839 4.62171 33.9792 3.89525 36.3943 3.27776C40.3225 3.38672 44.0541 3.59014 47.7422 4.83239C48.5279 5.09391 48.4188 5.15203 49.0517 5.52253C49.4227 5.74047 49.9028 5.81311 50.2229 6.15455C50.041 6.37975 49.8883 6.63402 49.6773 6.83743C48.8844 7.62927 47.5605 8.39206 46.6439 9.00229C46.011 9.42363 45.3637 10.2155 44.7017 10.724C43.8578 11.3778 43.4285 11.8355 42.6429 12.5402C41.9082 13.2012 40.9479 13.8986 40.2787 14.5815C39.3839 15.4896 38.7074 16.6301 37.7253 17.5818C36.7724 18.5117 36.4233 19.0202 35.594 19.9864C34.7065 21.0107 33.5645 21.8897 32.6334 22.8559C30.4365 25.137 28.7996 27.5198 26.9447 30.0625C26.6755 30.4257 26.2464 30.7453 25.9772 31.1594C25.7663 31.4863 26.0499 31.6752 25.3734 31.6607C25.3734 31.7914 25.417 31.9513 25.3734 32.0748C25.1624 32.7286 23.9913 33.8183 23.5257 34.4285C21.2997 37.3707 19.7793 40.6107 17.7643 43.611C17.597 43.8652 17.0151 44.2939 16.9133 44.5191C16.8042 44.7515 16.8986 45.1511 16.8768 45.1802C16.8623 45.2019 16.586 45.2237 16.4332 45.34C15.9313 45.725 15.1601 47.483 14.7527 48.1005C14.4108 48.6236 13.9379 49.0813 13.596 49.597C13.4578 49.8077 13.385 50.2145 13.1886 50.4761C12.985 50.7376 12.2795 51.1299 12.2577 51.1807C12.2141 51.2752 12.3013 51.5004 12.2503 51.682C12.214 51.791 11.6029 52.6773 11.4938 52.7572C11.3337 52.8734 11.0427 52.8879 10.9336 53.0187C10.8609 53.0986 10.7809 53.5345 10.6427 53.7597C10.4099 54.1374 9.99516 54.4353 9.77693 54.7477C8.88217 56.019 8.08931 57.3629 7.14363 58.6052C6.49621 59.4552 5.49973 60.0291 5.72524 61.2858C5.76161 61.482 5.99439 61.5038 5.97984 61.7145C4.63407 61.6491 3.84829 62.7824 2.56799 62.9712L2.53178 63.2763C2.07349 63.2328 2.1607 63.5742 1.94974 63.705C1.66604 63.8793 1.28782 63.9011 0.989572 64.2571C0.793162 64.4895 0.778599 64.8382 0.58219 65.0489C0.458524 65.187 0.189345 65.2523 0.145699 65.354C0.123876 65.3976 -0.00698244 66.1967 0.000291999 66.2476C0.0293897 66.4365 0.21829 66.6399 0.276485 66.8578C0.34923 67.1121 0.320247 67.3881 0.40754 67.6424C0.698517 68.4706 2.43716 67.8385 2.95364 67.439C3.24462 67.2138 3.2883 66.8288 3.60838 66.5672C3.97938 66.2621 4.5249 66.1604 4.91772 65.9279C5.84157 65.3904 6.12528 64.9545 7.34739 64.7656C7.63109 64.722 7.95113 64.8382 8.17664 64.7801C8.36578 64.7293 8.46025 64.4968 8.64211 64.3951C8.94763 64.228 11.7847 63.7776 12.1994 63.7776C12.2794 63.7776 12.3885 63.9011 12.5413 63.8938C12.8759 63.8793 13.5379 63.6033 13.698 63.9738C13.9235 63.596 14.3308 63.8721 14.5927 63.7486C14.7236 63.6832 14.6872 63.458 14.7891 63.4216C15.0073 63.3345 15.2548 63.4507 15.4148 63.4216C17.8663 62.9712 20.6814 63.3127 23.242 62.993C23.7585 62.9276 24.2242 62.5063 24.7334 62.4772C25.2062 62.4482 25.6861 62.9712 26.0426 62.5281L26.1373 62.8332C26.8065 62.6298 27.4612 62.3392 28.1377 62.1649C28.756 61.9978 28.9524 61.9687 29.6071 61.7435C30.7564 61.344 32.0587 60.8572 33.2444 60.6102C33.4117 60.5739 33.6299 60.6829 33.8627 60.6102C34.2336 60.5085 34.5974 59.7966 35.2157 60.1308L35.2303 59.8111C35.5431 59.753 35.9286 59.7893 36.2196 59.6658C36.416 59.5859 36.5615 59.2881 36.7361 59.2299C36.9252 59.1646 37.0998 59.2663 37.2161 59.2299C37.3325 59.1936 37.3836 58.9684 37.6018 58.8958C37.8637 58.8086 38.2201 58.9103 38.3874 58.8449C38.5329 58.7868 38.6274 58.5543 38.8019 58.5325C38.962 58.5108 39.224 58.7868 39.5368 58.656C39.6386 58.5035 39.5294 58.3873 39.7113 58.2274C40.2787 57.748 41.4208 57.5736 42.0827 57.2031C44.1559 56.048 46.8185 53.6507 48.528 51.9653C48.9426 51.5512 50.092 49.7859 50.3684 49.2411C50.6885 48.6163 50.9139 47.5993 51.2485 46.9237L51.234 46.9164ZM42.5192 51.9145C39.9513 53.8904 36.5689 55.6848 33.4482 56.7745C32.6189 57.0651 31.7022 57.1959 30.8874 57.4646C26.8865 58.8013 23.4383 59.8838 19.1246 60.0581C18.4844 60.0872 17.146 59.8838 16.615 59.9709C16.3531 60.0145 16.2586 60.2979 16.0477 60.3342C15.1311 60.494 13.9526 60.356 13.036 60.4068C12.0394 60.4649 11.1009 60.7846 10.1189 60.7773C9.95154 60.1961 10.5118 60.0799 10.6936 59.8402C11.2756 59.0774 11.6174 58.0676 12.323 57.2758C12.5776 56.9924 12.9778 56.76 13.1815 56.513C13.458 56.1715 13.567 55.5904 13.8289 55.2199C14.2363 54.6532 14.9636 54.1011 15.3928 53.5781C15.6183 53.302 15.7711 52.7862 15.8948 52.67C16.0257 52.5465 16.2004 52.67 16.2441 52.6337C16.2877 52.5973 16.5496 51.8273 16.6659 51.6166C18.1572 48.9505 20.6595 46.4079 21.7653 43.6764C21.9326 43.2623 21.6489 43.1751 22.3254 43.1461C22.3982 42.238 23.1256 41.5842 23.5185 40.7996C23.7876 40.2765 23.7368 39.63 24.3697 39.659C24.8571 38.642 25.3879 37.4942 26.0281 36.5643C26.6755 35.6126 27.7958 34.6828 28.3268 33.7311C28.5451 33.3388 28.567 32.7794 28.7488 32.4888C28.9816 32.1111 29.789 31.4863 30.1236 31.065C31.4258 29.445 32.8079 26.975 34.4447 25.6601C34.6411 25.5003 34.8157 25.3477 35.0776 25.4567C34.9393 24.9699 35.5213 24.0401 35.8413 23.6986C36.0596 23.4589 36.6125 23.1828 36.9253 22.885C37.3545 22.4854 37.7473 21.8534 38.162 21.4466C39.6241 19.9937 41.428 18.272 42.6865 16.6592C43.7631 15.2789 45.0508 14.2837 46.3457 13.0414C47.2332 12.1915 47.1675 12.1697 48.2514 11.4795C48.4697 11.3415 48.6663 10.9855 48.9281 10.8984C49.1318 10.833 49.2626 11.0582 49.4663 10.9928L49.3137 10.6005C49.8593 10.4552 49.8301 9.83772 50.4848 10.0339L50.4484 9.72875C51.0812 9.9031 50.9867 9.48902 51.2631 9.21296C51.4377 9.03861 51.7942 8.90058 51.8888 8.76982C51.976 8.64632 51.9325 8.45017 51.9616 8.41385C51.9907 8.37753 52.7762 8.26856 52.8489 8.30488C52.8998 8.32667 53.3947 9.07493 53.4893 9.21296C53.853 9.72875 53.7364 9.44543 54.0783 9.75054C54.4784 10.1138 54.4712 10.7603 54.6094 11.2035C54.6748 11.4214 54.8932 11.6321 54.9223 11.8064C54.9878 12.1479 54.7911 12.729 54.8275 13.085C54.922 14.1239 55.0894 14.1456 54.653 15.2499C53.8528 17.284 52.4198 19.2091 51.0667 20.8582C50.3029 21.7808 49.4882 22.2675 48.477 22.9068C48.3097 23.0158 48.0844 23.4444 47.8734 23.6333C47.4151 24.0401 46.7893 24.2217 46.3237 24.5486C45.7708 24.9336 45.4654 25.6819 44.6652 25.6165L44.6943 25.9144C43.9887 25.7037 43.9304 26.2049 43.5157 26.4301C42.6064 26.9169 41.0499 27.3455 40.0242 27.7814C38.9331 28.239 37.9218 28.6313 36.8379 29.0091C36.6924 29.0599 36.598 29.336 36.4089 29.4086C36.2416 29.474 36.0013 29.3796 35.7613 29.445C35.463 29.5249 35.1284 29.8663 34.8156 29.9099C34.6555 29.9317 34.5755 29.7646 34.3791 29.8445C33.9208 30.0261 34.1027 30.4475 33.9791 30.7163C33.9282 30.8252 33.7391 30.847 33.71 30.9923C33.6954 31.0795 33.6008 31.8786 33.6081 31.9222C33.6226 32.082 33.8044 32.191 33.8335 32.3218C33.8845 32.5397 33.6808 32.823 33.95 33.0264C34.1609 33.1862 34.6921 33.07 35.0049 33.208C35.3249 33.3461 35.434 33.7602 35.8122 33.8328C36.1832 33.8982 36.5542 33.7166 36.8816 33.7674C38.3656 34.0072 41.2535 34.5956 42.6429 35.1477C43.5813 35.5182 44.8035 36.6152 45.6327 36.775C45.7637 36.804 45.9964 36.7169 46.0618 36.7604C46.1055 36.7895 46.0691 36.9711 46.1273 37.022C46.171 37.0656 46.5493 37.0801 46.7166 37.16C47.0221 37.3053 47.6623 37.6031 47.9169 37.7557C48.1133 37.8719 48.4624 38.3514 48.4915 38.5621C48.5206 38.751 48.4115 38.9616 48.4624 39.1868C48.557 39.6227 49.0518 39.659 49.0372 40.4654C48.9208 45.3182 46.2657 49.0377 42.5266 51.9217L42.5192 51.9145Z" fill="black"/>
<path d="M196.585 27.854C196.214 27.9484 195.661 27.8903 195.326 28.0356C195.217 28.0865 193.922 29.6411 193.769 29.8736C192.853 31.1957 192.053 33.2734 190.991 34.3849C190.903 34.4794 190.649 34.5084 190.474 34.6973C190.183 35.0097 189.921 35.7652 189.63 36.1647C188.757 37.3343 187.404 37.9518 186.168 38.6492C185.229 39.1796 185.004 39.1941 183.942 39.3394C183.782 39.3612 183.629 39.4774 183.447 39.4919C183.28 39.5065 182.298 39.3394 182.21 39.2667C181.628 38.78 182.232 37.9083 182.421 37.407C182.538 37.0873 183.112 35.3802 183.221 35.2567C183.345 35.1186 183.505 35.1114 183.673 35.0968L183.338 34.1016C183.512 34.1016 183.651 34.058 183.789 33.949C185.091 32.9393 186.087 30.1932 186.669 28.7112C187.128 27.5489 188.205 26.5536 188.728 25.4204C188.997 24.8319 189.063 24.1345 189.347 23.5969C189.958 22.4128 190.925 21.1052 191.543 19.8629C191.878 19.1946 191.951 18.4608 192.22 17.7998C192.409 17.3348 192.576 17.4293 192.664 17.2985C192.86 16.9934 193.027 16.325 192.802 15.9981L192.511 16.1434C192.591 15.7221 192.169 15.6494 192.06 15.4678C191.863 15.1554 192.263 14.9375 191.609 14.7486C190.889 14.5452 190.35 15.199 189.572 15.061C189.572 15.1845 189.587 15.3298 189.536 15.446C189.463 15.6204 188.044 17.3857 187.855 17.56C187.63 17.7634 187.528 17.8506 187.215 17.7271C187.281 16.7972 186.604 17.0515 186.306 16.819C186.16 16.7101 186.16 16.4413 186.066 16.3541C186 16.2887 184.545 15.7293 184.393 15.7148C184.291 15.7075 184.153 15.8165 184.036 15.802C183.833 15.7802 183.694 15.5332 183.44 15.5187C183.163 15.5041 182.77 15.6712 182.53 15.6204C182.319 15.5768 182.392 15.2935 182.239 15.2499C181.585 15.0537 178.966 16.1652 178.129 16.3759C177.54 16.5212 176.784 16.4776 176.224 16.7391C175.809 16.928 175.765 17.3711 175.169 17.0733C175.176 17.2331 175.11 17.3493 175.008 17.4511C174.456 18.0032 173.379 18.4899 172.732 19.1001C171.895 19.8847 170.717 21.2214 170.091 22.1222C169.742 22.6162 169.138 22.9794 169 23.1683C168.927 23.2628 169 23.5824 168.913 23.7495C168.665 24.229 167.669 25.0862 167.32 25.6964C166.454 27.1929 165.508 28.6749 164.599 30.1351C163.901 31.2539 163.151 31.7624 162.431 32.6995C161.951 33.3243 161.616 34.1452 161.085 34.7917C159.652 36.5425 157.965 38.2497 156.262 39.7244C155.928 40.015 155.819 40.4436 155.258 40.4727V40.7487C154.822 40.7269 154.917 40.9739 154.742 41.1265C152.96 42.6593 151.148 43.7781 149.213 44.9622C148.071 45.6596 144.39 46.1464 143.11 45.9066C142.965 45.8776 142.877 45.725 142.725 45.6959C142.135 45.5652 141.401 45.6378 140.906 45.0639C140.68 44.8024 140.666 44.4174 140.542 44.2503C140.491 44.1776 139.967 44.0905 139.757 43.8144C139.502 43.4948 139.32 42.6012 139.349 42.2017C139.364 41.9692 139.575 41.882 139.589 41.6495C139.611 41.3372 139.429 40.9594 139.487 40.647C139.517 40.4581 139.764 40.3419 139.8 40.153C139.851 39.8552 139.691 39.492 139.72 39.165C139.749 38.8599 140.113 38.4313 140.164 38.1262C140.557 35.7361 141.393 34.7917 142.288 32.6777C142.594 31.9658 142.696 31.2103 142.95 30.5201C143.605 28.7621 144.776 27.0622 145.933 25.6456C146.813 24.5704 147.431 23.4589 148.34 22.4346C148.515 22.2384 148.377 22.5872 148.653 22.0423C148.813 21.7227 149.046 21.65 148.857 21.1342C149.519 21.1923 149.628 20.5022 150.05 20.168C150.988 19.4125 152.48 18.4608 153.556 17.9959C154.029 17.7925 154.531 17.6399 155.011 17.9087C155.055 17.9305 155.659 18.4245 155.673 18.4681C155.71 18.548 155.644 18.7078 155.688 18.8241C156.059 19.8484 156.044 20.1026 156.241 21.0834C156.277 21.2795 156.466 21.374 156.495 21.65C156.517 21.8316 156.43 22.7615 156.379 22.9504C156.212 23.5388 155.717 23.7422 156.27 24.5559C156.801 24.3888 157.848 24.505 158.205 24.0183C158.285 23.9093 158.27 23.5315 158.372 23.2918C158.481 23.0158 158.787 22.7833 158.852 22.5508C158.917 22.3111 158.685 22.2457 158.678 22.0496C158.663 21.7735 158.947 21.4466 158.837 20.9744C158.765 20.6475 158.525 20.6402 158.445 20.4005C158.336 20.0809 158.423 19.6086 158.285 19.3035C158.212 19.1364 157.986 19.0929 157.899 18.9621C157.361 18.1485 157.128 17.4874 156.291 16.8118C156.24 16.7754 155.23 16.325 155.171 16.325C155.091 16.325 154.989 16.4921 154.873 16.5139C153.745 16.6883 152.691 16.3759 151.483 16.7682C151.243 16.8481 150.938 17.313 150.61 17.4801C149.817 17.8869 149.555 17.8724 148.842 18.5117C147.118 20.0591 145.649 21.6282 144.216 23.5025C143.772 24.0837 143.401 24.6648 142.979 25.2169C142.812 25.4349 142.114 26.0233 142.055 26.1613C142.005 26.2703 142.15 26.4374 142.099 26.6408C141.932 27.2874 140.644 28.9001 140.288 29.6702C139.626 31.094 139.08 32.823 138.404 34.2905C138.214 34.7046 137.902 35.4601 137.72 35.787C137.618 35.9831 136.359 37.545 136.105 37.8574C135.501 38.6057 134.643 39.1941 134.01 39.8261C133.784 40.0513 133.537 40.7851 133.37 40.9013C133.224 40.9957 132.911 40.8432 132.853 40.9086C132.839 40.9231 132.89 41.1483 132.751 41.3372C132.591 41.5696 131.864 42.02 131.617 42.3034C128.7 45.6524 125.477 48.224 121.192 49.7133C120.756 49.8658 120.21 49.9022 119.832 50.0402C119.578 50.1346 119.432 50.447 119.134 50.5197C119.017 50.5487 117.511 50.7158 117.424 50.7085C117.257 50.6867 116.137 50.3017 116.035 50.2073C115.955 50.1274 115.54 49.1975 115.504 49.0449C115.46 48.8996 115.547 48.6744 115.504 48.4492C115.431 48.1223 115.104 47.7882 115.067 47.454C115.038 47.207 115.198 47.0254 115.191 46.8147C115.133 44.8315 115.424 43.1896 116.217 41.3372C116.275 41.2064 116.202 40.9885 116.239 40.9449C116.26 40.9158 116.835 40.6543 116.871 40.6398C117.213 40.5526 117.635 40.5889 118.137 40.4291C118.661 40.2693 119.468 39.7535 119.897 39.6808C120.101 39.6445 120.239 39.8116 120.465 39.7535C120.676 39.6954 121.614 39.1505 121.869 38.9907C122.225 38.7728 122.269 38.3587 122.88 38.533L122.851 38.2352C123.717 38.1843 124.342 37.4724 125.048 37.0292C126.925 35.8451 127.681 34.9951 129.296 33.5931C129.871 33.0918 130.082 33.1717 130.634 32.4162C130.984 31.9367 131.791 30.3894 132.06 30.1133C132.22 29.9462 132.453 29.9898 132.657 29.8373C132.788 29.7355 134.519 27.2438 134.585 27.0912C134.686 26.8515 135.108 24.1854 135.065 23.9674C135.021 23.7059 134.759 23.5824 134.65 23.3645C134.512 23.0811 134.599 22.7179 134.534 22.5218C134.41 22.1803 133.748 22.1149 133.959 21.6791L133.581 21.6282L133.464 21.1197C132.882 21.2868 132.438 20.6911 131.951 20.6257C131.726 20.5966 130.293 20.6693 130.045 20.7129C129.762 20.771 127.892 21.3812 127.616 21.512C125.375 22.5799 123.36 24.8174 121.956 26.8079C121.847 26.9677 121.861 27.1929 121.76 27.3019C121.614 27.4545 121.272 27.4472 121.083 27.6942C120.938 27.8831 120.938 28.2172 120.807 28.4061C120.676 28.5877 120.385 28.6531 120.283 28.8347C120.188 29.0018 120.247 29.2125 120.159 29.3796C119.992 29.692 118.799 31.203 118.464 31.6607C118.115 32.1401 116.966 33.2298 116.82 33.5277C116.718 33.7384 116.9 33.8764 116.849 33.9926C116.798 34.1016 116.508 34.2033 116.377 34.3704C115.686 35.2421 115.06 36.6297 114.493 37.6104C113.736 37.8065 113.481 38.395 113.118 39.0343C112.012 40.9594 110.994 42.376 109.459 43.9888C109.262 44.1922 109.131 44.7733 108.877 44.9695C108.717 45.093 108.44 45.1075 108.433 45.1293C108.397 45.1802 108.513 45.4635 108.433 45.6378C108.338 45.863 107.48 46.4151 107.276 46.6767C106.592 47.5339 106.04 48.0933 105.13 48.7035C104.148 49.3646 104.083 49.2919 103.035 49.6624C102.759 49.7569 102.555 50.1346 102.33 50.2218C102.082 50.3163 101.813 50.2799 101.566 50.3671C101.355 50.4397 101.209 50.6504 100.962 50.7231C100.257 50.9337 98.998 50.7594 98.3506 50.4179C98.1906 50.3308 97.7176 50.0039 97.7103 49.8368C97.7103 49.7569 97.8995 49.6334 97.9286 49.4735C98.9397 44.5844 100.693 39.6518 103.166 35.2857C103.253 35.1404 103.341 34.9733 103.399 34.8135C103.515 34.5084 103.283 34.3994 103.821 34.3631C104.294 33.1209 104.854 31.7987 105.516 30.6509C105.603 30.4983 105.821 30.3821 105.952 30.1642C106.476 29.3069 106.52 28.1809 107.458 27.6506C107.298 27.5489 107.153 27.4109 107.247 27.2147C107.742 26.5318 108.251 25.8272 108.695 25.108C108.993 24.6212 110.455 22.3402 110.543 22.0205C110.63 21.6936 110.586 21.2505 110.775 20.8654C111.299 20.9381 111.714 20.4441 112.114 20.3787C113.372 20.1753 113.852 19.8702 114.929 19.6159C116.202 19.3108 117.57 19.2091 118.865 18.795C119.148 18.7006 119.366 18.2865 119.803 18.3664V17.5382C119.308 17.4946 118.864 17.066 118.486 16.7682L117.031 16.9571L116.922 17.4801C116.333 17.2694 115.882 17.7271 115.409 17.7852C115.053 17.8288 114.864 17.5528 114.66 17.5673C114.471 17.5818 114.267 17.8433 114.049 17.9233C113.707 18.0468 112.332 18.548 112.172 18.0177C112.317 17.5237 112.659 17.0951 112.841 16.6156C112.899 16.4558 112.841 16.2379 112.885 16.1434C112.929 16.0562 113.307 15.9836 113.387 15.7439C113.445 15.555 113.365 15.337 113.416 15.1191C113.561 14.5161 114.282 13.7824 114.143 13.056L114.536 12.9906C114.485 12.3876 115.176 11.8428 115.293 11.3197C115.373 10.9637 115.271 10.6659 115.373 10.2736C115.751 8.81341 117.09 6.31437 117.846 4.99947C117.941 4.83239 117.977 4.46189 118.021 4.25848L118.341 4.32386C118.217 3.64825 118.413 3.16152 117.722 2.80555C117.097 2.48591 115.933 2.58035 115.598 3.26323C115.533 3.40125 115.642 3.56108 115.555 3.77175C115.395 4.17857 114.944 4.22942 115.278 4.81059L114.769 4.87597C114.784 5.04306 114.798 5.20288 114.747 5.3627C114.5 6.11823 113.947 6.91734 113.612 7.622C113.474 7.91985 113.394 8.39206 113.22 8.70444L112.863 8.74802C112.798 9.08946 112.863 9.38731 112.761 9.72875C112.332 11.2107 110.572 13.7752 109.793 15.2644C109.219 16.3686 108.884 17.5019 108.12 18.4899C108.076 18.548 108.12 18.7224 108.069 18.7732C107.938 18.9258 107.473 18.8677 107.349 18.9185C107.211 18.9766 107.16 19.1437 107.036 19.2164C106.36 19.5796 105.545 19.3399 104.803 19.4125C104.039 19.4852 103.254 19.7031 102.519 19.9138L102.592 19.7031C102.177 19.7975 101.449 18.9403 101.202 18.933L99.8201 19.1219L99.7108 19.645C99.1143 19.427 98.5905 19.9501 98.1103 19.9574C97.8412 19.9574 97.645 19.7176 97.4486 19.7322C97.2595 19.7467 97.0556 20.0082 96.8373 20.0881C96.5536 20.1971 94.9389 20.7637 94.9607 20.1172C94.9607 19.9791 95.5282 19.0565 95.6373 18.7877C95.6955 18.6279 95.6372 18.41 95.6808 18.3155C95.7244 18.2284 96.1029 18.1557 96.1829 17.916C96.2411 17.7271 96.1611 17.5092 96.212 17.2912C96.3575 16.6883 97.0776 15.9545 96.9394 15.2281L97.3322 15.1627C97.2813 14.5597 97.9722 14.0149 98.0886 13.4918C98.1686 13.1359 98.0668 12.838 98.1687 12.4457C98.547 10.9855 99.8854 8.4865 100.642 7.1716C100.737 7.00451 100.773 6.63402 100.817 6.43061L101.137 6.49599C101.013 5.82038 101.209 5.33365 100.518 4.97768C99.9001 4.65803 98.7289 4.75248 98.3943 5.43535C98.3288 5.57338 98.4379 5.7332 98.3506 5.94388C98.1978 6.33617 97.703 6.43787 98.074 6.98272L97.5648 7.0481C97.5793 7.21519 97.594 7.37501 97.5431 7.53483C97.2957 8.29035 96.743 9.08946 96.4084 9.79413C96.2702 10.092 96.1902 10.5642 96.0156 10.8766L95.6591 10.9201C95.5936 11.2616 95.659 11.5594 95.5571 11.9009C95.1279 13.3829 93.3677 15.9473 92.5893 17.4365C92.0073 18.548 91.68 19.7031 90.8871 20.6911C90.8507 20.7419 90.9088 20.9018 90.8724 20.9453C90.7342 21.0979 90.2759 21.0398 90.145 21.0906C90.0068 21.1488 89.9558 21.3158 89.8322 21.3885C89.2066 21.7299 88.4791 21.512 87.7953 21.5628C86.515 21.6645 85.2567 22.2167 84.0564 22.3474C83.7436 22.3837 83.336 22.2457 83.0014 22.2748C82.2812 22.3256 81.5684 22.529 80.8409 22.4419L80.8191 22.747C79.9243 22.8705 79.1023 23.0521 78.5058 23.7785C78.3894 24.0909 78.9497 24.5704 79.2043 24.6648C79.3789 24.7302 80.6737 25.0208 80.8628 25.0208C81.1392 25.0208 82.5213 24.9482 82.7032 24.9046C82.856 24.8682 82.9434 24.6794 83.0888 24.6503C83.2998 24.614 83.5762 24.861 83.7581 24.8537C83.9326 24.8465 84.0418 24.5777 84.2309 24.5268C84.4419 24.476 84.8419 24.6358 85.162 24.5922C85.3293 24.5704 85.4966 24.4469 85.6639 24.4251C86.8424 24.2508 88.0063 24.011 89.1774 23.8294C89.0247 24.3307 88.4791 24.7012 88.2609 25.1443C87.6498 26.3866 87.0026 27.716 86.4134 28.9655C86.246 29.3215 86.2386 29.9535 86.0786 30.1787C85.9258 30.3966 85.6422 30.3821 85.5113 30.571C84.9875 31.3483 84.5654 32.5615 84.0926 33.4332C83.7653 34.0362 83.2706 34.5883 82.9433 35.2131C82.7178 35.6417 82.616 36.2011 82.3323 36.6442C81.0956 37.545 79.7716 38.3223 78.3022 38.751C77.4147 39.0125 76.5054 39.136 75.5888 39.0924C75.6252 38.78 75.5234 38.3441 75.6107 38.0172C75.8071 37.2544 75.9452 37.545 75.7051 36.528C75.5742 35.9686 75.2252 35.3003 75.087 34.8281C74.8906 34.1815 75.1087 34.0362 74.7014 33.3969C74.4831 33.0555 74.2504 32.5397 74.0468 32.2418C73.7849 31.8568 72.9701 31.0432 72.8318 30.7017C72.73 30.4402 72.9046 30.2295 72.7591 29.9825C72.6573 29.8155 72.3953 29.7937 72.2789 29.6992C72.1771 29.612 72.1699 29.4304 72.0753 29.365C71.617 29.0599 70.3148 28.5369 69.7619 28.3625C69.3909 28.2463 67.6088 27.8104 67.376 27.9267C67.1359 28.0501 66.9758 28.5006 66.8012 28.6023C66.6775 28.6749 66.525 28.5805 66.4013 28.6531C66.2922 28.7112 65.8629 29.3069 65.601 29.5103C65.2373 29.8009 64.7498 29.9607 64.4588 30.1932C64.2843 30.3312 63.135 31.697 63.0549 31.8713C62.9822 32.0384 62.9749 32.1765 63.0186 32.3508L62.6987 32.2854L62.7276 32.5833C62.0293 32.5688 62.1748 32.9683 61.9347 33.3097C61.6874 33.6584 61.2509 33.949 61.0618 34.2033C60.8363 34.5084 60.5816 35.2349 60.3052 35.649C59.3741 37.0728 58.2176 38.4604 57.4319 39.9714C57.1628 40.4945 57.1991 41.497 56.9736 42.0128C56.8645 42.267 56.6244 42.3905 56.4789 42.7392C56.2752 43.226 56.2898 43.8144 56.1443 44.3229C55.2059 47.6138 54.5075 50.2654 55.3077 53.7161C55.4095 54.1592 55.7733 54.5661 55.8315 54.8058C55.8897 55.0601 55.7369 55.3071 55.9115 55.6703C55.926 55.7066 56.3479 56.295 56.3843 56.3168C56.4643 56.3604 56.6389 56.266 56.7553 56.3096C56.7917 56.3241 57.1191 56.7091 57.3155 56.8326C57.992 57.2467 59.5923 58.0749 60.3343 58.1693C60.7126 58.2202 60.8873 58.0386 61.0838 58.0458C61.2656 58.0458 61.5346 58.3655 61.8183 58.2928C62.0074 58.2492 62.1457 58.0313 62.3421 57.9659C62.7058 57.8497 63.135 57.9296 63.5133 57.7625C63.797 57.639 64.0516 57.1886 64.2771 57.0651C64.5026 56.9416 64.7791 56.9634 64.9537 56.8544C65.0992 56.76 65.0992 56.4912 65.2083 56.4113C65.3465 56.3023 65.5719 56.3314 65.7101 56.2442C66.3648 55.8301 68.016 54.7041 68.4452 54.1229C68.6198 53.8904 68.6345 53.5708 68.8164 53.302C69.1219 52.8443 70.1914 52.176 70.235 52.0888C70.286 51.9871 70.1331 51.8273 70.1694 51.682C70.2058 51.5512 70.5549 51.2243 70.6568 51.0427C71.5733 49.5099 72.2571 48.4129 72.81 46.7203C72.9118 46.4006 73.3484 46.0156 73.392 45.6959C73.4211 45.4853 73.29 45.0276 73.3409 44.9622C73.37 44.9186 73.5812 44.9332 73.6685 44.8024C73.7994 44.6135 73.7193 44.0541 73.8066 43.8217C74.134 42.9499 74.5633 42.1435 74.9197 41.2936C76.9493 41.5188 78.8478 41.0684 80.6082 40.2547C80.5573 40.7778 80.3246 41.5914 80.1791 41.773C80.0991 41.8675 79.9317 41.9183 79.8081 41.9474C80.1208 42.8119 79.2697 43.8217 79.0224 44.7007C78.9278 45.0349 78.9641 45.3618 78.8769 45.6959C78.7459 46.1536 78.2949 46.7348 78.2367 47.2288C78.2076 47.483 78.3167 47.948 78.2731 48.0424C78.244 48.1078 77.8439 48.1732 77.8294 48.3839C77.8221 48.4783 77.9677 48.7035 77.9677 48.9505C77.9677 49.1684 77.8949 49.9458 77.8221 50.1128C77.7639 50.2509 77.5602 50.2945 77.5529 50.3889C77.5383 50.5197 77.764 50.6504 77.7713 50.7667C77.7713 50.8466 77.633 50.9555 77.6548 51.079C77.6767 51.1953 78.2586 51.8564 78.375 52.1687C78.4769 52.4448 78.4187 52.7208 78.5569 52.9969C78.6078 53.0913 79.3134 53.905 79.4007 53.9413C79.568 54.0212 79.7134 53.905 79.7716 53.9413C79.8734 53.9994 79.9535 54.2973 80.1936 54.4644C80.4918 54.6605 81.0229 54.6968 81.2775 54.8566C81.4667 54.9801 81.4738 55.1618 81.6047 55.2707C82.0485 55.6267 82.7686 55.4015 83.2124 55.4596C83.387 55.4814 83.5834 55.7211 83.7653 55.6558C83.8817 55.6194 83.969 55.4233 84.1 55.3724C84.2455 55.3143 84.5656 55.3942 84.7838 55.3434C85.5185 55.1836 86.4642 54.7477 87.1334 54.3917C87.6135 54.1374 87.89 53.6289 88.5811 53.7161L88.4283 53.3238C88.792 53.2584 89.2865 53.0187 89.5774 52.7862C91.0833 51.6093 92.6474 50.0765 93.9131 48.5873C94.3787 48.0424 94.6261 47.4031 95.0989 46.8801C95.1353 47.1489 95.1279 47.7155 95.0261 47.948C94.9679 48.086 94.7643 48.1296 94.757 48.224C94.7424 48.3548 94.9681 48.4856 94.9754 48.6018C94.9754 48.6817 94.837 48.7907 94.8588 48.9142C94.8806 49.0304 95.4626 49.6915 95.579 50.0039C95.6663 50.2509 95.6298 50.5269 95.7244 50.7667C95.7535 50.8393 96.4665 51.682 96.5465 51.7401C96.7793 51.8854 96.9176 51.7401 96.9758 51.7764C97.0776 51.8346 97.1502 52.1324 97.3975 52.2995C97.6958 52.4956 98.2269 52.532 98.4815 52.6918C98.6706 52.8153 98.6779 52.9969 98.8088 53.1059C99.2525 53.4618 99.9729 53.2366 100.417 53.2947C100.577 53.3165 100.751 53.5127 100.897 53.5054C101.064 53.5054 101.158 53.2657 101.297 53.2148C101.479 53.1495 102.06 53.1858 102.439 53.0768C102.97 52.9243 103.828 52.5029 104.33 52.2414C104.81 51.9871 105.087 51.4786 105.778 51.5658L105.625 51.1735C105.734 51.1589 105.851 51.1517 105.952 51.1081C106.891 50.6504 107.567 49.8949 108.295 49.2338C108.557 48.9941 108.942 48.9214 109.24 48.58C109.859 47.8899 110.557 47.0908 111.161 46.3788C111.728 45.7032 112.012 44.875 112.659 44.2721C112.558 44.9041 112.237 46.1318 112.376 46.7348C112.434 46.989 112.776 47.1852 112.848 47.4249C112.943 47.7446 112.761 48.1005 112.87 48.4492C112.936 48.6599 113.154 48.7035 113.212 48.8488C113.314 49.074 113.256 49.3646 113.358 49.6188C113.445 49.8368 113.78 50.0184 113.903 50.2218C114.18 50.665 114.165 51.1444 114.58 51.6093C115.024 52.1033 115.453 52.3721 116.006 52.6264C117.242 53.193 118.108 53.3965 119.337 53.5708C119.432 53.5853 119.585 53.3892 119.774 53.3456C120.261 53.2439 120.69 53.3529 121.12 53.2875C121.782 53.1858 123.149 52.532 123.804 52.2268C128.089 50.1855 132.155 47.1779 135.123 43.4802L136.956 41.5406C136.832 42.1799 137.393 43.1388 137.414 43.6183C137.422 43.7563 137.291 43.8652 137.291 43.9524C137.291 44.1486 137.494 44.4464 137.458 44.6934L137.851 44.6571C138.069 45.0203 138.105 45.4853 138.382 45.8194C138.535 46.0083 139.255 46.7275 139.458 46.9237C140.826 48.2313 142.31 48.4274 144.005 49.0377L146.871 48.9142L146.944 48.58L150.712 48.0061C151.076 47.6501 151.323 47.5702 151.847 47.5412L151.818 47.2433C152.007 47.1634 152.101 47.4104 152.254 47.3523C152.436 47.2796 152.676 46.9455 152.887 46.822C155.229 45.4707 156.219 44.7515 158.176 42.9426C158.306 42.8264 158.656 42.761 158.866 42.6012C159.463 42.1508 159.281 41.5914 159.325 41.526C159.361 41.4752 160.227 41.1701 160.351 40.8432C160.445 40.6034 160.14 40.4654 160.722 40.3056C160.743 41.2064 160.401 42.3978 160.685 43.2623C160.758 43.4875 161.049 43.6328 161.063 43.8435C161.071 43.996 160.889 44.1122 160.955 44.2212C161.1 44.4755 161.777 44.8532 161.893 45.0421C161.988 45.2019 162.118 45.9066 162.169 45.9357L162.802 45.6451L163.013 46.0374C163.42 45.6669 163.973 46.2916 164.344 46.2481C164.388 46.2481 164.803 45.8994 165.043 45.8049C165.966 45.4562 167.021 45.4925 167.938 44.9259C168.163 44.7879 168.272 44.4973 168.483 44.3302C169.131 43.8144 170.295 43.3422 170.84 42.7756C171.037 42.5721 171.328 42.0636 171.568 41.7876C171.611 41.7367 171.764 41.7512 171.801 41.6931C171.851 41.6205 171.771 41.4534 171.801 41.4243C171.866 41.3444 172.15 41.4243 172.281 41.3299C172.317 41.3081 172.361 41.0684 172.455 40.9594C173.328 39.9714 174.252 39.1287 175.169 38.0826C175.416 37.7993 176.187 37.1673 176.325 36.9493C176.449 36.7532 176.354 36.5135 176.376 36.4844C176.413 36.4408 176.645 36.4844 176.755 36.4117C176.82 36.3609 177.54 35.2421 177.7 35.0678C179.206 33.3897 180.53 31.5735 181.919 29.7646C182.29 29.2779 182.581 28.7476 182.974 28.2826C183.287 28.2318 183.01 29.2052 182.938 29.3578C182.727 29.7937 182.269 29.9317 182.087 30.2659C181.861 30.6582 181.941 31.3265 181.788 31.7914C181.614 32.3508 180.69 33.4187 180.646 33.5858C180.559 33.9054 180.704 34.2541 180.661 34.6028C180.515 35.7071 179.475 36.8331 179.628 38.2279C179.65 38.4022 179.984 38.6275 179.919 38.998L179.613 39.0924C179.591 39.6881 180.355 39.877 180.523 40.1167C180.624 40.262 180.617 40.5017 180.726 40.6833C181.25 41.526 181.315 41.3372 182.137 41.5987C182.319 41.6568 182.487 41.8529 182.661 41.882C182.814 41.9038 182.952 41.7803 183.098 41.7876C183.396 41.8021 183.571 42.1145 183.971 42.0636C185.593 41.8602 189.434 40.4872 190.663 39.4048C192.409 37.8647 194.882 34.8135 195.894 32.6705C196.265 31.8786 196.148 31.8713 196.701 31.1739C196.745 31.1158 197.065 30.3894 197.087 30.2731C197.327 29.2851 196.585 28.8638 196.599 27.9194L196.585 27.854ZM118.406 36.3028C118.668 35.8742 118.865 35.2857 119.112 34.9152C119.352 34.5593 119.781 34.3631 119.992 34.0289C120.159 33.7602 120.152 33.3679 120.232 33.2444C120.523 32.794 121.112 32.2709 121.498 31.5953C121.665 31.3047 121.491 31.0868 122.014 31.1231L121.803 30.7308C122.102 30.5347 122.4 30.3603 122.611 30.0625C123.658 28.6023 124.677 27.1203 125.688 25.6238C126.066 25.0644 126.619 24.7883 126.881 24.4251C126.975 24.2943 126.954 24.0764 127.034 23.9965C127.055 23.9747 127.31 23.9892 127.477 23.8803C127.921 23.5969 128.3 23.0521 128.787 22.8559C129.18 22.6961 129.66 22.6307 130.096 22.4854C130.416 22.3765 131.297 21.9188 131.507 21.9188C131.769 21.9188 132.497 22.5799 132.569 22.8196C132.599 22.9286 132.482 23.0158 132.49 23.0957C132.49 23.1611 132.628 23.2337 132.628 23.2846C132.628 23.4298 132.468 23.6478 132.519 23.8585L132.235 23.9674C132.519 24.6721 132.199 24.9336 132.046 25.4712C131.988 25.6674 132.031 26.1323 131.98 26.2049C131.9 26.3284 131.246 26.8805 130.991 27.2365C129.965 28.6894 128.845 30.0479 127.499 31.2611C127.347 31.3991 126.954 31.5953 126.895 31.6679C126.801 31.7987 126.881 32.0166 126.757 32.1837C126.59 32.4089 124.713 33.9563 124.386 34.1888C123.549 34.7772 122.196 35.1768 121.52 35.7507C121.36 35.8887 121.498 36.063 121.418 36.1212C121.258 36.2301 120.996 36.2011 120.8 36.2955C120.094 36.6442 119.388 37.2254 118.624 37.5596C118.479 37.6249 118.013 37.8865 117.919 37.7557C117.533 37.051 118.108 36.7822 118.406 36.2882V36.3028ZM68.9619 47.4104C67.4634 50.3744 65.0918 53.0768 62.1966 54.7985C61.9565 54.9438 61.411 55.1836 61.3165 54.8566C60.72 55.1836 59.0322 55.169 58.4721 54.8566C58.3193 54.7695 58.2465 54.5951 58.101 54.5007C57.9774 54.4135 57.7301 54.4644 57.6065 54.29C57.5119 54.152 57.6064 53.9776 57.5555 53.8687C57.4973 53.7379 57.3228 53.6507 57.2864 53.5345C57.25 53.4255 57.0755 51.4568 57.0828 51.297C57.0973 51.0645 57.3082 50.8393 57.3519 50.585C57.41 50.2799 57.3374 49.7714 57.4319 49.5389C57.5047 49.3501 57.7883 49.2919 57.8247 49.1103C57.8683 48.8924 57.7519 48.5437 57.7737 48.2458C57.8174 47.7446 58.1956 46.989 58.312 46.4515C58.4066 46.0156 58.5667 44.3157 58.7122 44.0905C58.7922 43.967 59.0105 43.9306 59.1414 43.7781C59.6288 43.2114 60.3053 41.3154 60.7636 40.5163C61.8475 38.6347 63.5131 36.3391 64.7934 34.6028C65.0189 34.2977 65.3681 34.0362 65.5354 33.7892C65.6373 33.6439 65.6156 33.4114 65.652 33.3751C65.6884 33.3388 66.2777 32.8884 66.4013 32.8012C66.6414 32.6196 67.1868 32.4235 67.3614 32.2491C67.565 32.053 67.4416 31.6607 67.6889 31.4863C67.8926 31.341 68.4381 31.3192 68.5836 31.1667C68.6855 31.0577 68.62 30.847 68.6491 30.8107C68.6928 30.7599 69.471 30.7381 69.5583 30.2659L69.7111 30.2949C69.973 30.5564 70.1984 30.8543 70.453 31.1304C70.5476 31.2321 70.7297 31.2539 70.7515 31.2756C70.8388 31.3919 70.7005 31.6607 70.7369 31.8205C70.766 31.9948 70.9405 32.1038 70.9768 32.2346C71.0277 32.4235 70.8968 32.6341 70.9768 32.8158C71.0714 33.0264 71.457 32.9828 71.5006 33.041C71.5734 33.1354 71.5224 33.3533 71.5733 33.4768C71.7043 33.7674 71.7771 34.0798 71.8353 34.3922C71.7408 34.443 71.646 34.5011 71.5515 34.5811C70.3803 35.649 69.9292 37.5523 70.613 39.0052C70.8822 39.5719 71.3188 40.0077 71.8498 40.3346C71.1369 42.7465 69.9949 45.3545 68.9619 47.4031V47.4104ZM97.3758 39.6009C97.2303 39.7898 96.7428 39.8915 96.5392 40.1022C96.43 40.2184 96.0155 40.9594 95.8918 41.1701C94.7861 43.0952 93.7678 44.5118 92.2329 46.1246C92.0365 46.328 91.9054 46.9091 91.6508 47.1053C91.4981 47.2215 91.2362 47.2433 91.2143 47.2724C91.178 47.316 91.2653 47.6574 91.1416 47.8608C90.9816 48.1296 90.2833 48.5291 90.0578 48.8125C89.4322 49.5898 89.5558 49.3864 88.8501 49.9966C88.6465 50.1782 88.5519 50.5269 88.4283 50.6141C88.2973 50.7085 86.7841 51.6094 86.6896 51.6457C86.3768 51.7474 86.0568 51.6965 85.744 51.8345C85.5258 51.929 85.3221 52.2777 85.1111 52.3576C84.8638 52.452 84.5947 52.4157 84.3473 52.5029C84.1073 52.5828 83.9764 52.8008 83.649 52.8807C82.8634 53.0695 81.3794 52.8661 80.7611 52.314C80.2592 51.8636 80.6373 51.9581 80.7028 51.6166C81.7139 46.7275 83.4671 41.8021 85.9404 37.4288C86.0277 37.2835 86.1151 37.1164 86.1733 36.9566C86.2896 36.6515 86.0568 36.5425 86.5951 36.5062C87.068 35.2639 87.628 33.9418 88.29 32.794C88.3773 32.6414 88.5955 32.5252 88.7265 32.3072C89.2502 31.45 89.2941 30.324 90.2325 29.7864C90.0724 29.6847 89.9269 29.5467 90.0214 29.3505C90.5161 28.6676 91.0253 27.963 91.4691 27.2438C91.7673 26.757 93.2294 24.476 93.3167 24.1563C93.404 23.8294 93.3603 23.3863 93.5567 23.0012C94.0659 23.0884 94.546 22.5726 94.8879 22.5072C96.0227 22.2966 96.5174 22.5363 97.5431 22.7615C97.8268 22.8269 99.6308 22.7615 99.8927 22.6961C100.045 22.6598 100.133 22.4709 100.278 22.4419C100.489 22.4055 100.766 22.6525 100.948 22.6453C101.122 22.638 101.231 22.3692 101.42 22.3184C101.66 22.2602 102.068 22.4709 102.351 22.3837L106.36 21.5628C106.527 21.6791 105.574 22.6961 105.487 22.8632C104.854 24.1055 104.199 25.493 103.603 26.7498C103.435 27.1057 103.428 27.7378 103.268 27.963C103.115 28.1809 102.832 28.1664 102.701 28.3553C102.184 29.1326 101.755 30.3458 101.282 31.2175C100.744 32.2055 100.286 32.9683 99.7619 33.9999C99.5436 34.4285 99.1146 34.7409 98.9763 35.0533C98.7799 35.4964 98.5834 36.5207 98.3142 36.9348C98.0742 37.298 97.7904 36.913 98.1032 37.6467L97.805 37.6903C97.9069 38.0608 97.5867 39.3176 97.383 39.5791L97.3758 39.6009ZM182.028 25.0208C181.505 25.7473 180.595 26.6481 180.261 27.4327C179.948 28.1591 180.079 27.7232 179.628 28.2245C179.22 28.6822 178.457 29.8227 178.028 30.3966C177.715 30.818 177.649 31.4718 176.98 31.5662L177.125 31.8568C176.405 32.1401 176.158 33.2807 175.605 33.7674C175.416 33.9345 175.212 33.9563 175.06 34.0871C174.769 34.3486 174.158 35.4455 174.027 35.5472C173.197 36.1647 172.768 36.8694 172.077 37.6758C170.906 39.0488 167.734 41.606 166.141 42.6593C165.53 43.0661 163.166 43.7781 162.824 42.8191C162.715 42.514 162.955 40.3419 163.028 39.8842C163.268 38.4604 164.286 36.0412 165.181 34.9152C166.046 33.8183 166.796 33.1063 167.247 31.7188C167.37 31.341 167.312 30.6654 167.341 30.6C167.385 30.4693 167.698 30.2949 167.814 30.1278C167.989 29.8808 167.996 29.5757 168.134 29.365C168.294 29.1253 168.753 28.7403 168.898 28.457C169.182 27.9194 169.175 27.5852 169.538 26.9532C170.6 25.108 172.899 22.529 174.405 20.9453C174.936 20.386 175.729 20.1244 175.751 19.1728L176.536 18.9548L176.405 18.6207C176.42 18.41 177.904 17.9596 178.115 17.9596C178.391 17.9596 179.468 18.8604 179.322 17.9886L179.024 18.0177L178.973 17.6327C179.497 17.5673 180.268 17.066 180.712 16.9934C181.01 16.9425 181.214 17.1532 181.483 17.175C181.752 17.1968 182.719 17.1387 182.85 17.2694C182.901 17.3276 182.865 17.4874 182.967 17.5455C183.163 17.6545 183.534 17.531 183.767 17.5673C183.825 17.5746 184.836 17.9886 184.895 18.0177C185.04 18.1049 186.16 19.4343 186.131 19.5287C185.92 19.7031 185.84 19.9791 185.702 20.1753C184.545 21.759 183.236 23.3717 182.043 25.0281L182.028 25.0208Z" fill="black"/>
</svg>
